<svg width="71" height="26" viewBox="0 0 71 26" fill="none" xmlns="http://www.w3.org/2000/svg">
<rect width="19" height="24" rx="2" fill="#E8EB5B"/>
<path d="M8.708 13.333V18.998C8.708 19.6287 8.51367 20.1347 8.125 20.516C7.73633 20.89 7.223 21.077 6.585 21.077C5.93967 21.077 5.42267 20.8863 5.034 20.505C4.64533 20.1163 4.451 19.5883 4.451 18.921H5.452C5.45933 19.295 5.55467 19.5993 5.738 19.834C5.92867 20.0687 6.211 20.186 6.585 20.186C6.959 20.186 7.23767 20.076 7.421 19.856C7.60433 19.6287 7.696 19.3427 7.696 18.998V13.333H8.708ZM13.111 21.077C12.605 21.077 12.1503 20.989 11.747 20.813C11.351 20.6297 11.0393 20.3803 10.812 20.065C10.5847 19.7423 10.4673 19.372 10.46 18.954H11.527C11.5637 19.3133 11.7103 19.6177 11.967 19.867C12.231 20.109 12.6123 20.23 13.111 20.23C13.5877 20.23 13.9617 20.1127 14.233 19.878C14.5117 19.636 14.651 19.328 14.651 18.954C14.651 18.6607 14.5703 18.4223 14.409 18.239C14.2477 18.0557 14.046 17.9163 13.804 17.821C13.562 17.7257 13.2357 17.623 12.825 17.513C12.319 17.381 11.912 17.249 11.604 17.117C11.3033 16.985 11.043 16.7797 10.823 16.501C10.6103 16.215 10.504 15.8337 10.504 15.357C10.504 14.939 10.6103 14.5687 10.823 14.246C11.0357 13.9233 11.3327 13.674 11.714 13.498C12.1027 13.322 12.5463 13.234 13.045 13.234C13.7637 13.234 14.3503 13.4137 14.805 13.773C15.267 14.1323 15.5273 14.609 15.586 15.203H14.486C14.4493 14.9097 14.2953 14.653 14.024 14.433C13.7527 14.2057 13.3933 14.092 12.946 14.092C12.528 14.092 12.187 14.202 11.923 14.422C11.659 14.6347 11.527 14.9353 11.527 15.324C11.527 15.6027 11.604 15.83 11.758 16.006C11.9193 16.182 12.1137 16.3177 12.341 16.413C12.5757 16.501 12.902 16.6037 13.32 16.721C13.826 16.8603 14.233 16.9997 14.541 17.139C14.849 17.271 15.113 17.48 15.333 17.766C15.553 18.0447 15.663 18.426 15.663 18.91C15.663 19.284 15.564 19.636 15.366 19.966C15.168 20.296 14.8747 20.5637 14.486 20.769C14.0973 20.9743 13.639 21.077 13.111 21.077Z" fill="black"/>
<path d="M30.96 12.624V21H29.28V15.552L27.036 21H25.764L23.508 15.552V21H21.828V12.624H23.736L26.4 18.852L29.064 12.624H30.96ZM32.189 17.652C32.189 16.98 32.321 16.384 32.585 15.864C32.857 15.344 33.221 14.944 33.677 14.664C34.141 14.384 34.657 14.244 35.225 14.244C35.721 14.244 36.153 14.344 36.521 14.544C36.897 14.744 37.197 14.996 37.421 15.3V14.352H39.113V21H37.421V20.028C37.205 20.34 36.905 20.6 36.521 20.808C36.145 21.008 35.709 21.108 35.213 21.108C34.653 21.108 34.141 20.964 33.677 20.676C33.221 20.388 32.857 19.984 32.585 19.464C32.321 18.936 32.189 18.332 32.189 17.652ZM37.421 17.676C37.421 17.268 37.341 16.92 37.181 16.632C37.021 16.336 36.805 16.112 36.533 15.96C36.261 15.8 35.969 15.72 35.657 15.72C35.345 15.72 35.057 15.796 34.793 15.948C34.529 16.1 34.313 16.324 34.145 16.62C33.985 16.908 33.905 17.252 33.905 17.652C33.905 18.052 33.985 18.404 34.145 18.708C34.313 19.004 34.529 19.232 34.793 19.392C35.065 19.552 35.353 19.632 35.657 19.632C35.969 19.632 36.261 19.556 36.533 19.404C36.805 19.244 37.021 19.02 37.181 18.732C37.341 18.436 37.421 18.084 37.421 17.676ZM43.2978 21.108C42.7538 21.108 42.2658 21.012 41.8338 20.82C41.4018 20.62 41.0578 20.352 40.8018 20.016C40.5538 19.68 40.4178 19.308 40.3938 18.9H42.0858C42.1178 19.156 42.2418 19.368 42.4578 19.536C42.6818 19.704 42.9578 19.788 43.2858 19.788C43.6058 19.788 43.8538 19.724 44.0298 19.596C44.2138 19.468 44.3058 19.304 44.3058 19.104C44.3058 18.888 44.1938 18.728 43.9698 18.624C43.7538 18.512 43.4058 18.392 42.9258 18.264C42.4298 18.144 42.0218 18.02 41.7018 17.892C41.3898 17.764 41.1178 17.568 40.8858 17.304C40.6618 17.04 40.5498 16.684 40.5498 16.236C40.5498 15.868 40.6538 15.532 40.8618 15.228C41.0778 14.924 41.3818 14.684 41.7738 14.508C42.1738 14.332 42.6418 14.244 43.1778 14.244C43.9698 14.244 44.6018 14.444 45.0738 14.844C45.5458 15.236 45.8058 15.768 45.8538 16.44H44.2458C44.2218 16.176 44.1098 15.968 43.9098 15.816C43.7178 15.656 43.4578 15.576 43.1298 15.576C42.8258 15.576 42.5898 15.632 42.4218 15.744C42.2618 15.856 42.1818 16.012 42.1818 16.212C42.1818 16.436 42.2938 16.608 42.5178 16.728C42.7418 16.84 43.0898 16.956 43.5618 17.076C44.0418 17.196 44.4378 17.32 44.7498 17.448C45.0618 17.576 45.3298 17.776 45.5538 18.048C45.7858 18.312 45.9058 18.664 45.9138 19.104C45.9138 19.488 45.8058 19.832 45.5898 20.136C45.3818 20.44 45.0778 20.68 44.6778 20.856C44.2858 21.024 43.8258 21.108 43.2978 21.108ZM49.2488 15.732V18.948C49.2488 19.172 49.3008 19.336 49.4048 19.44C49.5168 19.536 49.7008 19.584 49.9568 19.584H50.7368V21H49.6808C48.2648 21 47.5568 20.312 47.5568 18.936V15.732H46.7648V14.352H47.5568V12.708H49.2488V14.352H50.7368V15.732H49.2488ZM58.1252 17.532C58.1252 17.772 58.1092 17.988 58.0772 18.18H53.2172C53.2572 18.66 53.4252 19.036 53.7212 19.308C54.0172 19.58 54.3812 19.716 54.8132 19.716C55.4372 19.716 55.8812 19.448 56.1452 18.912H57.9572C57.7652 19.552 57.3972 20.08 56.8532 20.496C56.3092 20.904 55.6412 21.108 54.8492 21.108C54.2092 21.108 53.6332 20.968 53.1212 20.688C52.6172 20.4 52.2212 19.996 51.9332 19.476C51.6532 18.956 51.5132 18.356 51.5132 17.676C51.5132 16.988 51.6532 16.384 51.9332 15.864C52.2132 15.344 52.6052 14.944 53.1092 14.664C53.6132 14.384 54.1932 14.244 54.8492 14.244C55.4812 14.244 56.0452 14.38 56.5412 14.652C57.0452 14.924 57.4332 15.312 57.7052 15.816C57.9852 16.312 58.1252 16.884 58.1252 17.532ZM56.3852 17.052C56.3772 16.62 56.2212 16.276 55.9172 16.02C55.6132 15.756 55.2412 15.624 54.8012 15.624C54.3852 15.624 54.0332 15.752 53.7452 16.008C53.4652 16.256 53.2932 16.604 53.2292 17.052H56.3852ZM61.0314 15.384C61.2474 15.032 61.5274 14.756 61.8714 14.556C62.2234 14.356 62.6234 14.256 63.0714 14.256V16.02H62.6274C62.0994 16.02 61.6994 16.144 61.4274 16.392C61.1634 16.64 61.0314 17.072 61.0314 17.688V21H59.3514V14.352H61.0314V15.384ZM70.563 14.352L66.447 24.144H64.659L66.099 20.832L63.435 14.352H65.319L67.035 18.996L68.775 14.352H70.563Z" fill="black"/>
</svg>
